<?xml version="1.0" encoding="utf-8"?>
<!-- Generator: Adobe Illustrator 21.0.0, SVG Export Plug-In . SVG Version: 6.00 Build 0)  -->
<svg version="1.1" id="图层_1" xmlns="http://www.w3.org/2000/svg" xmlns:xlink="http://www.w3.org/1999/xlink" x="0px" y="0px"
	 viewBox="0 0 738 740" style="enable-background:new 0 0 738 740;" xml:space="preserve">
<style type="text/css">
	.st0{display:none;fill:#FFFFFF;}
	.st1{fill:#FFFFFF;}
	.st2{fill:#002341;}
</style>
<g>
	<path class="st0" d="M750.7,369.5c0,211.6-171.5,383.1-383.2,383.1h-0.7c6.1,0,12.2-0.2,18.3-0.4
		c202.9-9.3,364.4-176.8,364.4-381.9C749.6,159.1,578.5-12,367.3-12C162.2-12-5.1,149.4-14.6,352.2c-1.5,31.8,0.7,62.7,6.3,92.2
		c-4.8-24.2-7.3-49.3-7.3-74.9c0-211.6,171.5-383.2,383.1-383.2S750.7,157.9,750.7,369.5z"/>
	<path class="st0" d="M367.4,730.7c-48.6,0-95.8-9.5-140.3-28.3c-42.9-18.1-81.5-44.1-114.5-77.2c-33.1-33.1-59.1-71.7-77.2-114.6
		C16.5,466.2,7,419,7,370.3s9.5-95.8,28.3-140.2c18.1-42.9,44.1-81.4,77.2-114.5c33.1-33.1,71.6-59.1,114.5-77.2
		C271.5,19.6,318.7,10,367.3,10c48.7,0,95.8,9.6,140.2,28.3C550.5,56.5,589,82.5,622,115.5c33.1,33.1,59.1,71.6,77.3,114.5
		c18.7,44.4,28.3,91.5,28.3,140.2s-9.6,96-28.3,140.2c-18.2,42.8-44.2,81.5-77.3,114.6c-33.1,33.1-71.6,59.1-114.5,77.2
		C463.2,721.1,416,730.7,367.4,730.7z"/>
	<circle class="st1" cx="368.5" cy="370.5" r="358.5"/>
	<path class="st0" d="M367.3-12C162.2-12-5.1,149.4-14.6,352.2c-1.5,31.8,0.7,62.7,6.3,92.2c0,0,0,0,0,0
		C26.5,620,181.2,752.3,366.8,752.6c6.1,0,12.2-0.2,18.3-0.4c202.9-9.3,364.4-176.8,364.4-381.9C749.6,159.1,578.5-12,367.3-12z
		 M622.1,625.1c-33.1,33.1-71.6,59.1-114.5,77.2c-44.4,18.8-91.5,28.3-140.2,28.3c-48.6,0-95.8-9.5-140.3-28.3
		c-42.9-18.1-81.5-44.1-114.5-77.2c-33.1-33.1-59.1-71.7-77.2-114.6C16.5,466.2,7,419,7,370.3s9.5-95.8,28.3-140.2
		c18.1-42.9,44.1-81.4,77.2-114.5c33.1-33.1,71.6-59.1,114.5-77.2C271.5,19.6,318.7,10,367.3,10c48.7,0,95.8,9.6,140.2,28.3
		C550.5,56.5,589,82.5,622,115.5c33.1,33.1,59.1,71.6,77.3,114.5c18.7,44.4,28.3,91.5,28.3,140.2s-9.6,96-28.3,140.2
		C681.2,553.4,655.2,592,622.1,625.1z"/>
	<path class="st2" d="M429.4,242.9h57.3c2.3,0,4.2-1.9,4.2-4.2v-83.9c0-2.3-1.9-4.2-4.2-4.2H414c-58.4,0-107.5,49.2-107.5,107.6
		v72.7c0,2.3-1.9,4.2-4.2,4.2h-53.2c-2.3,0-4.2,1.9-4.2,4.2v83.9c0,2.3,1.9,4.2,4.2,4.2h53.2c2.3,0,4.2,1.9,4.2,4.2v206.8
		c0,2.3,1.9,4.2,4.2,4.2h83.9c2.3,0,4.2-1.9,4.2-4.2V431.5c0-2.3,1.9-4.2,4.2-4.2h83.9c2.3,0,4.2-1.9,4.2-4.2v-83.9
		c0-2.3-1.9-4.2-4.2-4.2h-83.9c-2.3,0-4.2-1.9-4.2-4.2v-57.3C398.7,255.2,411,242.9,429.4,242.9z M429.4,242.9h57.3
		c2.3,0,4.2-1.9,4.2-4.2v-83.9c0-2.3-1.9-4.2-4.2-4.2H414c-58.4,0-107.5,49.2-107.5,107.6v72.7c0,2.3-1.9,4.2-4.2,4.2h-53.2
		c-2.3,0-4.2,1.9-4.2,4.2v83.9c0,2.3,1.9,4.2,4.2,4.2h53.2c2.3,0,4.2,1.9,4.2,4.2v206.8c0,2.3,1.9,4.2,4.2,4.2h83.9
		c2.3,0,4.2-1.9,4.2-4.2V431.5c0-2.3,1.9-4.2,4.2-4.2h83.9c2.3,0,4.2-1.9,4.2-4.2v-83.9c0-2.3-1.9-4.2-4.2-4.2h-83.9
		c-2.3,0-4.2-1.9-4.2-4.2v-57.3C398.7,255.2,411,242.9,429.4,242.9z M429.4,242.9h57.3c2.3,0,4.2-1.9,4.2-4.2v-83.9
		c0-2.3-1.9-4.2-4.2-4.2H414c-58.4,0-107.5,49.2-107.5,107.6v72.7c0,2.3-1.9,4.2-4.2,4.2h-53.2c-2.3,0-4.2,1.9-4.2,4.2v83.9
		c0,2.3,1.9,4.2,4.2,4.2h53.2c2.3,0,4.2,1.9,4.2,4.2v206.8c0,2.3,1.9,4.2,4.2,4.2h83.9c2.3,0,4.2-1.9,4.2-4.2V431.5
		c0-2.3,1.9-4.2,4.2-4.2h83.9c2.3,0,4.2-1.9,4.2-4.2v-83.9c0-2.3-1.9-4.2-4.2-4.2h-83.9c-2.3,0-4.2-1.9-4.2-4.2v-57.3
		C398.7,255.2,411,242.9,429.4,242.9z"/>
</g>
<image style="display:none;overflow:visible;" width="84" height="64" xlink:href="F97E72FB.jpg"  transform="matrix(0.7499 0 0 0.7499 310 319)">
</image>
</svg>
