<?xml version="1.0" encoding="utf-8"?>
<!-- Generator: Adobe Illustrator 21.0.0, SVG Export Plug-In . SVG Version: 6.00 Build 0)  -->
<svg version="1.1" id="图层_1" xmlns="http://www.w3.org/2000/svg" xmlns:xlink="http://www.w3.org/1999/xlink" x="0px" y="0px"
	 viewBox="0 0 68 68" style="enable-background:new 0 0 68 68;" xml:space="preserve">
<style type="text/css">
	.st0{fill:#EAEEF6;}
	.st1{display:none;}
	.st2{display:inline;}
	.st3{fill:#0E9FC1;}
	.st4{fill:#FF7671;}
</style>
<g id="图层_1_1_">
	<image style="display:none;overflow:visible;enable-background:new    ;" width="68" height="68" xlink:href="DA2686AD.png" >
	</image>
	<g>
		<g>
			<path class="st0" d="M34,3c17.1,0,31,13.9,31,31S51.1,65,34,65S3,51.1,3,34S16.9,3,34,3 M34,0C15.2,0,0,15.2,0,34s15.2,34,34,34
				s34-15.2,34-34S52.8,0,34,0L34,0z"/>
		</g>
	</g>
	<g class="st1">
		<g class="st2">
			<path class="st3" d="M29,43l-8.6-8.6c-0.8-0.8-0.8-2.2,0-3l0,0c0.8-0.8,2.2-0.8,3,0L32,40c0.8,0.8,0.8,2.2,0,3l0,0
				C31.2,43.8,29.8,43.8,29,43z"/>
		</g>
		<g class="st2">
			<path class="st3" d="M48.2,27.2l-16,16c-0.8,0.8-2.2,0.8-3,0l0,0c-0.8-0.8-0.8-2.2,0-3l16-16c0.8-0.8,2.2-0.8,3,0l0,0
				C49,25,49,26.4,48.2,27.2z"/>
		</g>
	</g>
	<image style="display:none;overflow:visible;enable-background:new    ;" width="68" height="68" xlink:href="DA2686AF.png" >
	</image>
	<path class="st4" d="M33,21h2c1.2,0,2.1,0.9,2,2l-1,15.2c-0.1,1-0.9,1.8-2,1.8l0,0c-1.1,0-1.9-0.8-2-1.8L31,23
		C30.9,21.9,31.8,21,33,21z"/>
	<circle class="st4" cx="34" cy="44" r="2"/>
</g>
<g id="图层_2">
</g>
</svg>
