<?xml version="1.0" encoding="utf-8"?>
<!-- Generator: Adobe Illustrator 21.0.0, SVG Export Plug-In . SVG Version: 6.00 Build 0)  -->
<svg version="1.1" id="图层_1" xmlns="http://www.w3.org/2000/svg" xmlns:xlink="http://www.w3.org/1999/xlink" x="0px" y="0px"
	 viewBox="0 0 68 68" style="enable-background:new 0 0 68 68;" xml:space="preserve">
<style type="text/css">
	.st0{fill:#EAEEF6;}
	.st1{fill:#0E9FC1;}
</style>
<image style="display:none;overflow:visible;enable-background:new    ;" width="68" height="68" xlink:href="D88BFFE2.png" >
</image>
<g>
	<g>
		<path class="st0" d="M34,3c17.1,0,31,13.9,31,31S51.1,65,34,65S3,51.1,3,34S16.9,3,34,3 M34,0C15.2,0,0,15.2,0,34s15.2,34,34,34
			s34-15.2,34-34S52.8,0,34,0L34,0z"/>
	</g>
</g>
<g>
	<g>
		<path class="st1" d="M29,43l-8.6-8.6c-0.8-0.8-0.8-2.2,0-3l0,0c0.8-0.8,2.2-0.8,3,0L32,40c0.8,0.8,0.8,2.2,0,3l0,0
			C31.2,43.8,29.8,43.8,29,43z"/>
	</g>
	<g>
		<path class="st1" d="M48.2,27.2l-16,16c-0.8,0.8-2.2,0.8-3,0l0,0c-0.8-0.8-0.8-2.2,0-3l16-16c0.8-0.8,2.2-0.8,3,0l0,0
			C49,25,49,26.4,48.2,27.2z"/>
	</g>
</g>
</svg>
