<?xml version="1.0" encoding="utf-8"?>
<!-- Generator: Adobe Illustrator 16.0.0, SVG Export Plug-In . SVG Version: 6.00 Build 0)  -->
<!DOCTYPE svg PUBLIC "-//W3C//DTD SVG 1.1//EN" "http://www.w3.org/Graphics/SVG/1.1/DTD/svg11.dtd">
<svg version="1.1" id="图层_1" xmlns="http://www.w3.org/2000/svg" xmlns:xlink="http://www.w3.org/1999/xlink" x="0px" y="0px"
	 width="16px" height="16px" viewBox="0 0 16 16" enable-background="new 0 0 16 16" xml:space="preserve">
<g>
	<path d="M16,13.625c0,1.1-0.9,2-2,2H2.031c-1.1,0-2-0.9-2-2V2.234c0-1.1,0.9-2,2-2H14c1.1,0,2,0.9,2,2V13.625z"/>
</g>
<ellipse fill="#FFFFFF" cx="7.865" cy="7.984" rx="5.218" ry="4.344"/>
<path d="M3.469,6.281h8.656V9c0,0,0,0.359-0.109,0.531s-0.406,0.234-0.406,0.234H9.016c0,0-0.31,0.035-0.481-0.074
	S8.25,9.313,8.25,9.313L8,8.813l-0.203,0.5c0,0-0.097,0.275-0.172,0.36C7.54,9.77,7.141,9.766,7.141,9.766H4.078
	c0,0-0.188-0.016-0.406-0.188S3.469,9.047,3.469,9.047V6.281z"/>
<polygon fill="#FFFFFF" points="4.125,7.047 4.125,8.969 7.141,8.969 7.625,8.234 7.625,7.047 "/>
<polygon fill="#FFFFFF" points="8.328,7.039 8.328,8.234 8.891,8.969 11.5,8.969 11.5,7.039 "/>
<text transform="matrix(1 0 0 1 8.4072 8.3706)" font-family="'Broadway'" font-size="1.4352">BCC  </text>
<path fill="#FFFFFF" d="M4.45,4.31l-0.24,0.2C4.17,4.22,4.05,3.95,3.87,3.73l-2.6,1.78C1.54,6,2.06,6.32,2.65,6.32
	c0.02,0,0.05,0,0.07-0.01L2.63,6.58C1.62,6.56,0.81,5.74,0.81,4.73c0-1.02,0.83-1.84,1.85-1.84C3.53,2.89,4.26,3.49,4.45,4.31z"/>
<path fill="#FFFFFF" d="M11.5,4.453l0.234,0.172c0.016-0.75,0.587-1.157,0.838-1.29l1.697,2.654
	c-0.438,0.346-0.629,0.292-1.187,0.292c-0.02,0,0.12,0.299,0.12,0.299c0.625,0,1.399-0.199,1.794-1.128
	c0.398-0.939-0.045-2.019-0.983-2.417C13.214,2.695,11.672,2.971,11.5,4.453z"/>
<text transform="matrix(1 0 0 1 1.4683 14.1768)" fill="#FFFFFF" font-family="'Broadway'" font-size="1.6383">BCC Mandarin</text>
</svg>
