<?xml version="1.0" encoding="utf-8"?>
<!-- Generator: Adobe Illustrator 21.0.0, SVG Export Plug-In . SVG Version: 6.00 Build 0)  -->
<svg version="1.1" id="图层_1" xmlns="http://www.w3.org/2000/svg" xmlns:xlink="http://www.w3.org/1999/xlink" x="0px" y="0px"
	 viewBox="0 0 16.719 16.113" enable-background="new 0 0 16.719 16.113" xml:space="preserve">
<g display="none">
	<path display="inline" d="M19.427,16.075c0,1.456-1.192,2.648-2.648,2.648h-16.84c-1.456,0-2.648-1.192-2.648-2.648V0.038
		c0-1.456,1.192-2.648,2.648-2.648h16.84c1.456,0,2.648,1.192,2.648,2.648V16.075z"/>
</g>
<path fill="#FFFFFF" d="M16.719,13.987c0,1.169-0.957,2.126-2.126,2.126H2.126C0.957,16.113,0,15.156,0,13.987V2.126
	C0,0.957,0.957,0,2.126,0h12.467c1.169,0,2.126,0.957,2.126,2.126V13.987z"/>
<g>
	<path d="M16.344,13.752c0,1.1-0.9,2-2,2H2.375c-1.1,0-2-0.9-2-2V2.361c0-1.1,0.9-2,2-2h11.969c1.1,0,2,0.9,2,2V13.752z"/>
</g>
<ellipse fill="#FFFFFF" cx="8.209" cy="8.111" rx="5.218" ry="4.344"/>
<path d="M3.813,6.408h8.656v2.719c0,0,0,0.359-0.109,0.531s-0.406,0.234-0.406,0.234H9.36c0,0-0.31,0.035-0.481-0.074
	C8.706,9.709,8.594,9.44,8.594,9.44l-0.25-0.5l-0.203,0.5c0,0-0.097,0.275-0.172,0.36C7.884,9.897,7.485,9.893,7.485,9.893H4.422
	c0,0-0.187-0.016-0.406-0.188C3.797,9.533,3.813,9.174,3.813,9.174V6.408z"/>
<polygon fill="#FFFFFF" points="4.469,7.174 4.469,9.096 7.485,9.096 7.969,8.361 7.969,7.174 "/>
<polygon fill="#FFFFFF" points="8.672,7.166 8.672,8.361 9.235,9.096 11.844,9.096 11.844,7.166 "/>
<text transform="matrix(1 0 0 1 8.7512 8.4976)" font-family="'Broadway'" font-size="1.4352px">BCC  </text>
<path fill="#FFFFFF" d="M4.794,4.437l-0.24,0.2c-0.04-0.29-0.16-0.56-0.34-0.78l-2.6,1.78c0.27,0.49,0.79,0.81,1.38,0.81
	c0.02,0,0.05,0,0.07-0.01l-0.09,0.27c-1.01-0.02-1.82-0.84-1.82-1.85c0-1.02,0.83-1.84,1.85-1.84
	C3.874,3.017,4.604,3.617,4.794,4.437z"/>
<path fill="#FFFFFF" d="M11.844,4.58l0.234,0.172c0.016-0.75,0.587-1.157,0.838-1.29l1.697,2.654
	c-0.438,0.346-0.629,0.292-1.186,0.292c-0.019,0,0.12,0.299,0.12,0.299c0.625,0,1.399-0.199,1.794-1.128
	c0.398-0.939-0.045-2.019-0.983-2.417C13.558,2.822,12.016,3.098,11.844,4.58z"/>
<text transform="matrix(1 0 0 1 1.8123 14.3038)" fill="#FFFFFF" font-family="'Broadway'" font-size="1.6383px">BCC Mandarin</text>
</svg>
