<?xml version="1.0" encoding="utf-8"?>
<!-- Generator: Adobe Illustrator 21.0.0, SVG Export Plug-In . SVG Version: 6.00 Build 0)  -->
<svg version="1.1" id="图层_1" xmlns="http://www.w3.org/2000/svg" xmlns:xlink="http://www.w3.org/1999/xlink" x="0px" y="0px"
	 viewBox="0 0 50 50" style="enable-background:new 0 0 50 50;" xml:space="preserve">
<style type="text/css">
	.st0{fill:#FFFFFF;}
</style>
<image style="display:none;overflow:visible;enable-background:new    ;" width="42" height="42" xlink:href="1B8B1056.png"  transform="matrix(1 0 0 1 2.208 4)">
</image>
<g>
	<path class="st0" d="M5.2,12c-1.7,0-3,1.4-3,3v28c0,1.7,1.3,3,3,3h26.9c1.6,0,3-1.3,3-3V15c0-1.6-1.4-3-3-3H5.2z M28.9,37.3
		c0,1.6-1.3,3-3,3H11.1c-1.6,0-3-1.4-3-3V21.1c0-1.6,1.4-3,3-3h14.8c1.7,0,3,1.4,3,3C28.9,21.1,28.9,37.3,28.9,37.3z"/>
</g>
<path class="st0" d="M22.4,27.1l-5.9-3.4c-1-0.6-2.3,0.1-2.3,1.3v6.9c0,1.2,1.3,1.9,2.3,1.3l5.9-3.4C23.4,29.1,23.4,27.7,22.4,27.1z
	"/>
<g>
	<path class="st0" d="M40.6,4c1.7,0,3,1.3,3,3v28c0,1.7-1.3,3-3,3h-6.4c-1.7,0-3-1.3-3-2.8s1.4-2.8,3-2.8h0.2c1.7,0,3-1.4,3-3V13
		c0-1.6-1.3-3-3-3H19.6c-1.6,0-3,1.4-3,3v0.7c0,1.6-1.3,3-2.9,2.9s-2.9-1.4-2.9-3.1V7c0-1.7,1.4-3,3-3H40.6z"/>
</g>
</svg>
