<?xml version="1.0" encoding="utf-8"?>
<!-- Generator: Adobe Illustrator 21.0.0, SVG Export Plug-In . SVG Version: 6.00 Build 0)  -->
<svg version="1.1" id="图层_1" xmlns="http://www.w3.org/2000/svg" xmlns:xlink="http://www.w3.org/1999/xlink" x="0px" y="0px"
	 viewBox="0 0 50 50" style="enable-background:new 0 0 50 50;" xml:space="preserve">
<style type="text/css">
	.st0{display:none;}
	.st1{display:inline;fill:#FFFFFF;}
	.st2{display:none;fill:#FFFFFF;}
	.st3{fill:#FFFFFF;}
</style>
<g id="图层_1_1_">
	
		<image style="display:none;overflow:visible;enable-background:new    ;" width="42" height="42" xlink:href="B4388AE2.png"  transform="matrix(1 0 0 1 2.208 4)">
	</image>
	<g class="st0">
		<path class="st1" d="M5.2,12c-1.7,0-3,1.4-3,3v28c0,1.7,1.3,3,3,3h26.9c1.6,0,3-1.3,3-3V15c0-1.6-1.4-3-3-3H5.2z M28.9,37.3
			c0,1.6-1.3,3-3,3H11.1c-1.6,0-3-1.4-3-3V21.1c0-1.6,1.4-3,3-3h14.8c1.7,0,3,1.4,3,3C28.9,21.1,28.9,37.3,28.9,37.3z"/>
	</g>
	<path class="st2" d="M22.4,27.1l-5.9-3.4c-1-0.6-2.3,0.1-2.3,1.3v6.9c0,1.2,1.3,1.9,2.3,1.3l5.9-3.4C23.4,29.1,23.4,27.7,22.4,27.1
		z"/>
	<g class="st0">
		<path class="st1" d="M40.6,4c1.7,0,3,1.3,3,3v28c0,1.7-1.3,3-3,3h-6.4c-1.7,0-3-1.3-3-2.8s1.4-2.8,3-2.8h0.2c1.7,0,3-1.4,3-3V13
			c0-1.6-1.3-3-3-3H19.6c-1.6,0-3,1.4-3,3v0.7c0,1.6-1.3,3-2.9,2.9s-2.9-1.4-2.9-3.1V7c0-1.7,1.4-3,3-3H40.6z"/>
	</g>
</g>
<g id="图层_2">
	
		<image style="display:none;overflow:visible;enable-background:new    ;" width="41" height="29" xlink:href="B4388AE6.png"  transform="matrix(1 0 0 1 4.5 10.5)">
	</image>
	<path class="st3" d="M42.5,10.5h-35c-1.7,0-3,1.3-3,3v23c0,1.6,1.3,3,3,3h35c1.7,0,3-1.4,3-3v-23C45.5,11.8,44.2,10.5,42.5,10.5z
		 M40.5,34.5H9.4V18.4h31.1V34.5z"/>
	<path class="st3" d="M25.5,26.5h-13c-0.6,0-1-0.5-1-1v-1c0-0.5,0.4-1,1-1h13c0.5,0,1,0.5,1,1v1C26.5,26,26,26.5,25.5,26.5z"/>
	<path class="st3" d="M25.5,32.5h-13c-0.6,0-1-0.5-1-1v-1c0-0.5,0.4-1,1-1h13c0.5,0,1,0.5,1,1v1C26.5,32,26,32.5,25.5,32.5z"/>
	<path class="st3" d="M37.5,26.5h-6c-0.5,0-1-0.5-1-1v-1c0-0.5,0.5-1,1-1h6c0.5,0,1,0.5,1,1v1C38.5,26,38.1,26.5,37.5,26.5z"/>
</g>
</svg>
