<?xml version="1.0" encoding="utf-8"?>
<!-- Generator: Adobe Illustrator 21.0.0, SVG Export Plug-In . SVG Version: 6.00 Build 0)  -->
<svg version="1.1" id="图层_1" xmlns="http://www.w3.org/2000/svg" xmlns:xlink="http://www.w3.org/1999/xlink" x="0px" y="0px"
	 viewBox="0 0 50 50" style="enable-background:new 0 0 50 50;" xml:space="preserve">
<style type="text/css">
	.st0{display:none;}
	.st1{display:inline;}
	.st2{fill:#FFFFFF;}
	.st3{display:inline;fill:#FFFFFF;}
	.st4{fill:#1E6791;}
</style>
<g id="图层_1_1_" class="st0">
	
		<image style="display:inline;overflow:visible;enable-background:new    ;" width="42" height="42" xlink:href="E143F4C7.png"  transform="matrix(1 0 0 1 2.208 4)">
	</image>
	<g class="st1">
		<path class="st2" d="M5.2,12c-1.7,0-3,1.4-3,3v28c0,1.7,1.3,3,3,3h26.9c1.6,0,3-1.3,3-3V15c0-1.6-1.4-3-3-3H5.2z M28.9,37.3
			c0,1.6-1.3,3-3,3H11.1c-1.6,0-3-1.4-3-3V21.1c0-1.6,1.4-3,3-3h14.8c1.7,0,3,1.4,3,3C28.9,21.1,28.9,37.3,28.9,37.3z"/>
	</g>
	<path class="st3" d="M22.4,27.1l-5.9-3.4c-1-0.6-2.3,0.1-2.3,1.3v6.9c0,1.2,1.3,1.9,2.3,1.3l5.9-3.4C23.4,29.1,23.4,27.7,22.4,27.1
		z"/>
	<g class="st1">
		<path class="st2" d="M40.6,4c1.7,0,3,1.3,3,3v28c0,1.7-1.3,3-3,3h-6.4c-1.7,0-3-1.3-3-2.8s1.4-2.8,3-2.8h0.2c1.7,0,3-1.4,3-3V13
			c0-1.6-1.3-3-3-3H19.6c-1.6,0-3,1.4-3,3v0.7c0,1.6-1.3,3-2.9,2.9s-2.9-1.4-2.9-3.1V7c0-1.7,1.4-3,3-3H40.6z"/>
	</g>
</g>
<g id="图层_2" class="st0">
	
		<image style="display:inline;overflow:visible;enable-background:new    ;" width="41" height="29" xlink:href="E143F4C5.png"  transform="matrix(1 0 0 1 4.5 10.5)">
	</image>
	<path class="st3" d="M42.5,10.5h-35c-1.7,0-3,1.3-3,3v23c0,1.6,1.3,3,3,3h35c1.7,0,3-1.4,3-3v-23C45.5,11.8,44.2,10.5,42.5,10.5z
		 M40.5,34.5H9.4V18.4h31.1V34.5z"/>
	<path class="st3" d="M25.5,26.5h-13c-0.6,0-1-0.5-1-1v-1c0-0.5,0.4-1,1-1h13c0.5,0,1,0.5,1,1v1C26.5,26,26,26.5,25.5,26.5z"/>
	<path class="st3" d="M25.5,32.5h-13c-0.6,0-1-0.5-1-1v-1c0-0.5,0.4-1,1-1h13c0.5,0,1,0.5,1,1v1C26.5,32,26,32.5,25.5,32.5z"/>
	<path class="st3" d="M37.5,26.5h-6c-0.5,0-1-0.5-1-1v-1c0-0.5,0.5-1,1-1h6c0.5,0,1,0.5,1,1v1C38.5,26,38.1,26.5,37.5,26.5z"/>
</g>
<g id="图层_3" class="st0">
	
		<image style="display:inline;overflow:visible;enable-background:new    ;" width="40" height="29" xlink:href="E143F4CB.png"  transform="matrix(1 0 0 1 5 10.5)">
	</image>
	<path class="st3" d="M8.8,39.5H7c-1.1,0-2-0.9-2-2v-25c0-1.1,0.9-2,2-2h1.8c1.1,0,2,0.9,2,2v25C10.8,38.6,9.9,39.5,8.8,39.5z"/>
	<path class="st3" d="M45,35.7v1.8c0,1.1-0.9,2-2,2H8.3c-1.1,0-2-0.9-2-2v-1.8c0-1.1,0.9-2,2-2H43C44.1,33.7,45,34.6,45,35.7z"/>
	<path class="st3" d="M26.3,22.5L17,31.8c-0.8,0.8-2.1,0.8-2.8,0l-1-1c-0.8-0.8-0.8-2.1,0-2.8l9.3-9.3c0.8-0.8,2.1-0.8,2.8,0l1,1
		C27.1,20.5,27.1,21.7,26.3,22.5z"/>
	<path class="st3" d="M43,17L30.9,29.1c-0.8,0.8-2.1,0.8-2.8,0l-1-1c-0.8-0.8-0.8-2.1,0-2.8l12.1-12.1c0.8-0.8,2.1-0.8,2.8,0l1,1
		C43.8,14.9,43.8,16.2,43,17z"/>
	<path class="st3" d="M25.5,18.9l6.1,6.1c0.8,0.8,0.8,2.1,0,2.8l-1,1c-0.8,0.8-2.1,0.8-2.8,0l-6.1-6.1c-0.8-0.8-0.8-2.1,0-2.8l1-1
		C23.5,18.1,24.7,18.1,25.5,18.9z"/>
	<path class="st3" d="M42.5,15.6h-7.1c-1.1,0-2-0.9-2-2v-1c0-1.1,0.9-2,2-2h7.1c1.1,0,2,0.9,2,2v1C44.5,14.7,43.6,15.6,42.5,15.6z"
		/>
	<path class="st3" d="M45.8,12.6v7.1c0,1.1-0.9,2-2,2h-1c-1.1,0-2-0.9-2-2v-7.1c0-1.1,0.9-2,2-2h1C44.9,10.6,45.8,11.5,45.8,12.6z"
		/>
	<circle class="st3" cx="22.4" cy="14.1" r="2.6"/>
</g>
<g id="图层_4">
	
		<image style="display:none;overflow:visible;enable-background:new    ;" width="36" height="40" xlink:href="E143F4CD.png"  transform="matrix(0.7679 0.6406 -0.6406 0.7679 23.9909 -1.8885)">
	</image>
	<path class="st4" d="M6.9,11.9l-0.4,9.2l4.9,5.8l5.2,1.5l4.5-0.8l15,18.7h1.8l5.9-5l0.2-1.7l-16.3-18l1.7-4.1L29,12.1l-5-5.9
		l-9.4-0.9l7.1,8.3c0,0,0.8,0.7,0.7,1.4c-0.1,0.7-1.2,1.5-1.2,1.5L17.1,20c0,0-0.9,0.9-1.8,0.9c-0.9-0.1-1.2-0.7-1.2-0.7L6.9,11.9z"
		/>
</g>
</svg>
