<?xml version="1.0" encoding="utf-8"?>
<!-- Generator: Adobe Illustrator 21.0.0, SVG Export Plug-In . SVG Version: 6.00 Build 0)  -->
<svg version="1.1" id="图层_1" xmlns="http://www.w3.org/2000/svg" xmlns:xlink="http://www.w3.org/1999/xlink" x="0px" y="0px"
	 viewBox="0 0 16 16" style="enable-background:new 0 0 16 16;" xml:space="preserve">
<style type="text/css">
	.st0{fill:#467197;}
	.st1{display:none;}
	.st2{display:inline;fill:#1A6890;}
	.st3{display:inline;fill:#467197;}
	.st4{display:inline;}
	.st5{display:inline;fill:#FFFFFF;}
	.st6{fill:#FFFFFF;}
</style>
<g id="图层_1_1_">
	
		<image style="display:none;overflow:visible;enable-background:new    ;" width="16" height="14" xlink:href="86F84741.png"  transform="matrix(1 0 0 1 4.882813e-04 1.1484)">
	</image>
	<g>
		<path class="st0" d="M16,6.6c0,0.3-0.2,0.5-0.5,0.5h-15C0.2,7.1,0,6.9,0,6.6v-1c0-0.3,0.2-0.5,0.5-0.5h15c0.3,0,0.5,0.2,0.5,0.5
			V6.6z"/>
	</g>
	<g>
		<path class="st0" d="M15.1,6.7c-0.2,0.2-0.5,0.2-0.7,0l-3.7-3.6c-0.2-0.2-0.2-0.5,0-0.7l0.7-0.7c0.2-0.2,0.5-0.2,0.7,0l3.7,3.6
			C16,5.5,16,5.8,15.8,6L15.1,6.7z"/>
	</g>
	<g>
		<path class="st0" d="M0.1,10.7c0-0.3,0.2-0.5,0.5-0.5h15c0.3,0,0.5,0.2,0.5,0.5v1c0,0.3-0.2,0.5-0.5,0.5h-15
			c-0.3,0-0.5-0.2-0.5-0.5C0.1,11.7,0.1,10.7,0.1,10.7z"/>
	</g>
	<g>
		<path class="st0" d="M0.9,10.7c0.2-0.2,0.5-0.2,0.7,0l3.7,3.6c0.2,0.2,0.2,0.5,0,0.7l-0.7,0.7c-0.2,0.2-0.5,0.2-0.7,0l-3.7-3.6
			c-0.2-0.2-0.2-0.5,0-0.7L0.9,10.7z"/>
	</g>
</g>
<g id="图层_2" class="st1">
	
		<image style="display:inline;overflow:visible;enable-background:new    ;" width="14" height="16" xlink:href="86F84743.png"  transform="matrix(1 0 0 1 1.5 0)">
	</image>
	<path class="st2" d="M3.5,6"/>
	<path class="st3" d="M5.5,6V4.2c0,0,0.1-2.5,3-2.5c3,0,3,2.5,3,2.5V6h2V4.2c0,0,0-4.2-5-4.2s-5,4.1-5,4.1V6H5.5z"/>
	<g class="st4">
		<path class="st0" d="M15.5,15c0,0.6-0.4,1-1,1h-12c-0.5,0-1-0.4-1-1V8c0-0.6,0.5-1,1-1h12c0.6,0,1,0.4,1,1V15z"/>
	</g>
	<circle class="st5" cx="8.5" cy="10" r="1.7"/>
	<g class="st4">
		<path class="st6" d="M9.1,12.9c0,0.3-0.2,0.5-0.5,0.5H8.4c-0.3,0-0.5-0.2-0.5-0.5v-1.1c0-0.3,0.2-0.5,0.5-0.5h0.2
			c0.3,0,0.5,0.2,0.5,0.5C9.1,11.8,9.1,12.9,9.1,12.9z"/>
	</g>
</g>
</svg>
