<?xml version="1.0" encoding="utf-8"?>
<!-- Generator: Adobe Illustrator 21.0.0, SVG Export Plug-In . SVG Version: 6.00 Build 0)  -->
<svg version="1.1" id="图层_1" xmlns="http://www.w3.org/2000/svg" xmlns:xlink="http://www.w3.org/1999/xlink" x="0px" y="0px"
	 viewBox="0 0 143.5 101" style="enable-background:new 0 0 143.5 101;" xml:space="preserve">
<style type="text/css">
	.st0{display:none;}
	.st1{display:inline;fill:#272635;stroke:#000000;stroke-width:0.5;stroke-miterlimit:10;}
	.st2{display:inline;}
	.st3{fill:#272635;}
	.st4{fill:#C2C0B4;}
</style>
<g id="图层_1_1_" class="st0">
	<polygon class="st1" points="90.5,91 99.5,106 95.5,111 86.5,91 	"/>
	<polygon class="st1" points="43.5,91 34.5,106 38.5,111 47.5,91 	"/>
	<g class="st2">
		<g>
			<path class="st3" d="M51.5,14V9.2c0.2-0.5,1.4-3.6,5.9-8.4C61.8-4,67.2-5.3,68-5.5c0.7,0.2,5.2,1.5,9.6,6.3
				c4.5,4.8,5.7,7.9,5.9,8.4V14H51.5z M68,3.5c-1.9,0-3.5,1.6-3.5,3.5s1.6,3.5,3.5,3.5s3.5-1.6,3.5-3.5S69.9,3.5,68,3.5z"/>
		</g>
		<g>
			<path d="M68-5c0.9,0.3,5.1,1.6,9.3,6.1c4.2,4.5,5.5,7.5,5.7,8.1v4.3H52V9.3c0.2-0.6,1.5-3.6,5.7-8.1C61.9-3.4,66.9-4.7,68-5
				 M68,11c2.2,0,4-1.8,4-4s-1.8-4-4-4s-4,1.8-4,4S65.8,11,68,11 M68-6c0,0-6,1.1-11,6.5s-6,8.6-6,8.6v5.4h33V9.1c0,0-1-3.2-6-8.6
				S68-6,68-6L68-6z M68,10c-1.7,0-3-1.3-3-3s1.3-3,3-3s3,1.3,3,3S69.7,10,68,10L68,10z"/>
		</g>
	</g>
	<g class="st2">
		<rect x="31.5" y="82" class="st3" width="72" height="8"/>
		<path d="M103,82.5v7H32v-7H103 M104,81.5H31v9h73V81.5L104,81.5z"/>
	</g>
	<g class="st2">
		<path d="M115,17.5v62H20v-62H115 M119,13.5H16v70h103V13.5L119,13.5z"/>
	</g>
	<g class="st2">
		<rect x="16.5" y="88" class="st3" width="102" height="4"/>
		<path d="M118,88.5v3H17v-3H118 M119,87.5H16v5h103V87.5L119,87.5z"/>
	</g>
</g>
<g id="图层_2">
	<circle class="st4" cx="51" cy="18.5" r="16"/>
	<path class="st4" d="M45,29.5c0,0,0,2,0,6c0,3-2,4-2,4s-11,4-17,9s-8,12-8,12v3h67v-3c0,0-2-6-9-12s-18-9-18-9s-2-1-2-4s0-6,0-6H45
		z"/>
	<polygon class="st4" points="5,68.5 0,78.5 19,78.5 19,94.5 87,94.5 87,77.5 101,77.5 101,68.5 	"/>
	<polygon class="st4" points="107,48.5 91,48.5 91,64.5 107,64.5 107,78.5 124,78.5 124,64.5 140,64.5 140,48.5 124,48.5 124,34.5 
		107,34.5 	"/>
</g>
<image style="display:none;overflow:visible;" width="258" height="183" xlink:href="6F2BF1D4.jpg"  transform="matrix(0.7499 0 0 0.7499 -6 -30)">
</image>
</svg>
