<?xml version="1.0" encoding="utf-8"?>
<!-- Generator: Adobe Illustrator 21.0.0, SVG Export Plug-In . SVG Version: 6.00 Build 0)  -->
<svg version="1.1" id="图层_1" xmlns="http://www.w3.org/2000/svg" xmlns:xlink="http://www.w3.org/1999/xlink" x="0px" y="0px"
	 viewBox="0 0 140.3 120" style="enable-background:new 0 0 140.3 120;" xml:space="preserve">
<style type="text/css">
	.st0{fill:#272635;stroke:#000000;stroke-width:0.5;stroke-miterlimit:10;}
	.st1{fill:#272635;}
</style>
<polygon class="st0" points="93.5,99.5 102.5,114.5 98.5,119.5 89.5,99.5 "/>
<polygon class="st0" points="46.5,99.5 37.5,114.5 41.5,119.5 50.5,99.5 "/>
<g>
	<g>
		<path class="st1" d="M54.5,22.5v-4.8c0.2-0.5,1.4-3.6,5.9-8.4C64.8,4.5,70.2,3.2,71,3c0.7,0.2,5.2,1.5,9.6,6.3
			c4.5,4.8,5.7,7.9,5.9,8.4v4.8H54.5z M71,12c-1.9,0-3.5,1.6-3.5,3.5S69.1,19,71,19s3.5-1.6,3.5-3.5S72.9,12,71,12z"/>
	</g>
	<g>
		<path d="M71,3.5c0.9,0.3,5.1,1.6,9.3,6.1c4.2,4.5,5.5,7.5,5.7,8.1V22H55v-4.2c0.2-0.6,1.5-3.6,5.7-8.1C64.9,5.1,69.9,3.8,71,3.5
			 M71,19.5c2.2,0,4-1.8,4-4s-1.8-4-4-4s-4,1.8-4,4S68.8,19.5,71,19.5 M71,2.5c0,0-6,1.1-11,6.5s-6,8.6-6,8.6V23h33v-5.4
			c0,0-1-3.2-6-8.6S71,2.5,71,2.5L71,2.5z M71,18.5c-1.7,0-3-1.3-3-3s1.3-3,3-3s3,1.3,3,3S72.7,18.5,71,18.5L71,18.5z"/>
	</g>
</g>
<g>
	<rect x="34.5" y="90.5" class="st1" width="72" height="8"/>
	<path d="M106,91v7H35v-7H106 M107,90H34v9h73V90L107,90z"/>
</g>
<g>
	<path d="M134,26v62H7V26H134 M139.3,22H1.7v70h137.7V22L139.3,22z"/>
</g>
<g>
	<rect x="19.5" y="96.5" class="st1" width="102" height="4"/>
	<path d="M121,97v3H20v-3H121 M122,96H19v5h103V96L122,96z"/>
</g>
</svg>
