<?xml version="1.0" encoding="utf-8"?>
<!-- Generator: Adobe Illustrator 21.0.0, SVG Export Plug-In . SVG Version: 6.00 Build 0)  -->
<svg version="1.1" id="图层_1" xmlns="http://www.w3.org/2000/svg" xmlns:xlink="http://www.w3.org/1999/xlink" x="0px" y="0px"
	 viewBox="0 0 130 90" style="enable-background:new 0 0 130 90;" xml:space="preserve">
<image style="display:none;overflow:visible;enable-background:new    ;" width="122" height="86" xlink:href="5EAA0513.png"  transform="matrix(1 0 0 1 3 2)">
</image>
<g>
	<path d="M64,8.5c24.5,0,44.5,16.6,44.5,37s-20,37-44.5,37s-44.5-16.6-44.5-37S39.5,8.5,64,8.5 M64,6.5c-25.7,0-46.5,17.5-46.5,39
		s20.8,39,46.5,39s46.5-17.5,46.5-39S89.7,6.5,64,6.5L64,6.5z"/>
</g>
<g>
	<path d="M34,17.7c0-0.2,0-0.5,0-0.7c0-7.7-6.3-14-14-14S6,9.3,6,17s6.3,14,14,14c0.8,0,1.5-0.1,2.3-0.2l-0.8,2.1
		C21,33,20.5,33,20,33c-8.8,0-16-7.2-16-16S11.2,1,20,1c8.6,0,15.6,6.8,16,15.3L34,17.7z"/>
</g>
<g>
	<path d="M6.7,24C5.6,21.8,5,19.4,5,17C5,8.7,11.7,2,20,2c4.3,0,8.4,1.8,11.2,5L6.7,24z"/>
	<path d="M20,3c3.7,0,7.1,1.4,9.7,3.9L7.1,22.5C6.4,20.8,6,18.9,6,17C6,9.3,12.3,3,20,3 M20,1C11.2,1,4,8.2,4,17
		c0,3.2,0.9,6.2,2.5,8.7L7,25L32.7,7.2C29.8,3.4,25.2,1,20,1L20,1z"/>
</g>
<g>
	<path d="M95,17.7c0-0.2,0-0.5,0-0.7c0-7.7,6.3-14,14-14s14,6.3,14,14s-6.3,14-14,14c-0.8,0-1.5-0.1-2.3-0.2l0.8,2.1
		c0.5,0,1,0.1,1.4,0.1c8.8,0,16-7.2,16-16s-7.2-16-16-16c-8.6,0-15.6,6.8-16,15.3L95,17.7z"/>
</g>
<g>
	<path d="M97.8,7c2.8-3.2,6.9-5,11.2-5c8.3,0,15,6.7,15,15c0,2.4-0.6,4.8-1.7,7L97.8,7z"/>
	<path d="M109,3c7.7,0,14,6.3,14,14c0,1.9-0.4,3.8-1.1,5.5L99.3,6.9C101.9,4.4,105.3,3,109,3 M109,1c-5.2,0-9.8,2.4-12.7,6.2L122,25
		l0.5,0.7c1.6-2.5,2.5-5.5,2.5-8.7C125,8.2,117.8,1,109,1L109,1z"/>
</g>
<path d="M26,30v24c0,0,0,3,2,5s4,2,4,2h25c0,0,3,0,5-3s2-7,2-7V30H26z M61,48l-4,6H32V37h29V48z"/>
<path d="M63,30v21c0,0,0,4,2,7s5,3,5,3h25c0,0,2,0,4-2s2-5,2-5V30H63z M66,37h29v17H70l-4-6V37z"/>
</svg>
