<?xml version="1.0" encoding="utf-8"?>
<!-- Generator: Adobe Illustrator 21.0.0, SVG Export Plug-In . SVG Version: 6.00 Build 0)  -->
<svg version="1.1" id="图层_1" xmlns="http://www.w3.org/2000/svg" xmlns:xlink="http://www.w3.org/1999/xlink" x="0px" y="0px"
	 viewBox="0 0 16 16" style="enable-background:new 0 0 16 16;" xml:space="preserve">
<style type="text/css">
	.st0{fill:#1A6890;}
</style>
<image style="display:none;overflow:visible;enable-background:new    ;" width="16" height="15" xlink:href="9DFC6011.png"  transform="matrix(1 0 0 1 0 0.2363)">
</image>
<ellipse class="st0" cx="7.9" cy="6.1" rx="5.8" ry="4.9"/>
<path class="st0" d="M4.1,2L3.8,2.2c0-0.3-0.2-0.6-0.4-0.9l-2.9,2c0.3,0.5,0.9,0.9,1.5,0.9c0,0,0.1,0,0.1,0L2,4.5
	c-1.1,0-2-0.9-2-2.1c0-1.1,0.9-2.1,2.1-2.1C3,0.4,3.8,1,4.1,2z"/>
<path class="st0" d="M11.9,2.1l0.3,0.2c0-0.8,0.7-1.3,0.9-1.4l1.9,3c-0.5,0.4-0.7,0.3-1.3,0.3c0,0,0.1,0.3,0.1,0.3
	c0.7,0,1.6-0.2,2-1.3c0.4-1,0-2.3-1.1-2.7C13.8,0.2,12.1,0.5,11.9,2.1z"/>
<polygon class="st0" points="3.4,10.3 3.4,14 7.9,12.3 12.3,14 12.3,10.3 7.9,11.2 "/>
</svg>
