<?xml version="1.0" encoding="utf-8"?>
<!-- Generator: Adobe Illustrator 21.0.0, SVG Export Plug-In . SVG Version: 6.00 Build 0)  -->
<svg version="1.1" id="图层_1" xmlns="http://www.w3.org/2000/svg" xmlns:xlink="http://www.w3.org/1999/xlink" x="0px" y="0px"
	 viewBox="0 0 50 50" style="enable-background:new 0 0 50 50;" xml:space="preserve">
<style type="text/css">
	.st0{fill:#FFFFFF;}
	.st1{display:none;}
	.st2{display:inline;}
	.st3{fill:#386890;}
	.st4{display:inline;fill:#386890;}
	.st5{display:none;fill:#FFFFFF;}
</style>
<g id="message">
	
		<image style="display:none;overflow:visible;enable-background:new    ;" width="43" height="32" xlink:href="6CE0473E.png"  transform="matrix(1 0 0 1 3.5 9.6592)">
	</image>
	<g>
		<path class="st0" d="M6.5,9.7c-1.7,0-3,1.4-3,3v26c0,1.7,1.3,3,3,3h37c1.7,0,3-1.3,3-3v-26c0-1.6-1.3-3-3-3H6.5z M39.4,34.6
			c0,1.7-1.3,3-3,3H13.3c-1.6,0-3-1.3-3-3V18.5c0-1.6,1.4-3,3-3h23.1c1.7,0,3,1.4,3,3C39.4,18.5,39.4,34.6,39.4,34.6z"/>
	</g>
	<g>
		<path class="st0" d="M25.5,26c0.9,0.7,1.1,1.9,0.4,2.7c-0.6,0.8-1.9,1-2.8,0.3l-8-6.1c-0.9-0.7-1.1-1.9-0.4-2.7
			c0.6-0.8,1.9-1,2.8-0.3L25.5,26z"/>
	</g>
	<g>
		<path class="st0" d="M23.6,26.3c-0.9,0.7-1.1,1.9-0.4,2.7c0.6,0.8,1.9,1,2.8,0.3l8-6.1c0.9-0.7,1.1-1.9,0.4-2.7
			c-0.6-0.8-1.9-1-2.8-0.3L23.6,26.3z"/>
	</g>
</g>
<g id="order" class="st1">
	
		<image style="display:inline;overflow:visible;enable-background:new    ;" width="40" height="47" xlink:href="6CE04742.png"  transform="matrix(1 0 0 1 5.5 1.5)">
	</image>
	<g class="st2">
		<path class="st3" d="M12.5,45.5c0,1.7-1.4,3-3,3h-1c-1.7,0-3-1.3-3-3v-41c0-1.7,1.3-3,3-3h1c1.6,0,3,1.3,3,3V45.5z"/>
	</g>
	<g class="st2">
		<path class="st3" d="M45.5,45.5c0,1.7-1.3,3-3,3h-1c-1.7,0-3-1.3-3-3V12.8c0-1.6,1.3-3,3-3h1c1.7,0,3,1.4,3,3V45.5z"/>
	</g>
	<g class="st2">
		<path class="st3" d="M40.8,41.5c1.7,0,3,1.3,3,3v1c0,1.7-1.3,3-3,3H10.9c-1.6,0-3-1.3-3-3v-1c0-1.7,1.4-3,3-3H40.8z"/>
	</g>
	<g class="st2">
		<path class="st3" d="M34.5,1.5c1.7,0,3,1.3,3,3v1c0,1.7-1.3,3-3,3H10.9c-1.6,0-3-1.3-3-3v-1c0-1.7,1.4-3,3-3H34.5z"/>
	</g>
	<g class="st2">
		<path class="st3" d="M31.3,14.5c1.7,0,3,1.4,3,3v0.4c0,1.6-1.3,3-3,3H19.4c-1.6,0-3-1.4-3-3v-0.4c0-1.6,1.4-3,3-3H31.3z"/>
	</g>
	<g class="st2">
		<path class="st3" d="M31.1,22.6c1.7,0,3,1.4,3,3v0.4c0,1.6-1.3,3-3,3H19.3c-1.6,0-3-1.4-3-3v-0.4c0-1.6,1.4-3,3-3H31.1z"/>
	</g>
	<g class="st2">
		<path class="st3" d="M31.4,30.6c1.7,0,3,1.4,3,3v0.4c0,1.7-1.3,3-3,3H19.6c-1.6,0-3-1.3-3-3v-0.4c0-1.6,1.4-3,3-3H31.4z"/>
	</g>
</g>
<g id="图层_3" class="st1">
	
		<image style="display:inline;overflow:visible;enable-background:new    ;" width="40" height="43" xlink:href="6CE04745.png"  transform="matrix(1 0 0 1 5.667 3.5)">
	</image>
	<g class="st2">
		<path class="st3" d="M12.7,43.5c0,1.7-1.4,3-3,3h-1c-1.7,0-3-1.3-3-3v-37c0-1.7,1.3-3,3-3h1c1.6,0,3,1.3,3,3V43.5z"/>
	</g>
	<g class="st2">
		<path class="st3" d="M45.7,43.5c0,1.7-1.3,3-3,3h-1c-1.7,0-3-1.3-3-3v-37c0-1.7,1.3-3,3-3h1c1.7,0,3,1.3,3,3V43.5z"/>
	</g>
	<g class="st2">
		<path class="st3" d="M41.9,39.5c1.7,0,3,1.3,3,3v1c0,1.7-1.3,3-3,3H9.3c-1.7,0-3-1.3-3-3v-1c0-1.7,1.3-3,3-3H41.9z"/>
	</g>
	<rect x="9.2" y="3.5" class="st4" width="5.5" height="5.9"/>
	<rect x="35.6" y="3.4" class="st4" width="5.5" height="5.9"/>
	<path class="st4" d="M28.8,12.1V6.5h-6V12c-3.1,1.3-5.3,4.4-5.3,8.2c0,4.8,3.6,8.8,8.1,8.8c4.5,0,8.1-3.9,8.1-8.8
		C33.8,16.5,31.7,13.4,28.8,12.1z M25.6,26.9c-1.5,0-2.7-0.7-2.7-1.5s1.2-1.5,2.7-1.5c1.5,0,2.7,0.7,2.7,1.5S27.1,26.9,25.6,26.9z"
		/>
	<g class="st2">
		<path class="st3" d="M18.7,35.5c0,1.1-0.7,2-1.5,2s-1.5-0.9-1.5-2v-4.9c0-1.1,0.7-2,1.5-2s1.5,0.9,1.5,2V35.5z"/>
	</g>
	<g class="st2">
		<path class="st3" d="M27.1,37.1c0,1.1-0.7,2-1.5,2s-1.5-0.9-1.5-2v-4.9c0-1.1,0.7-2,1.5-2s1.5,0.9,1.5,2V37.1z"/>
	</g>
	<g class="st2">
		<path class="st3" d="M35.3,35.5c0,1.1-0.7,2-1.5,2s-1.5-0.9-1.5-2v-4.9c0-1.1,0.7-2,1.5-2s1.5,0.9,1.5,2V35.5z"/>
	</g>
</g>
<g id="图层_4" class="st1">
	
		<image style="display:inline;overflow:visible;enable-background:new    ;" width="42" height="41" xlink:href="6CE04746.png"  transform="matrix(1.0685 0 0 1.0685 2.5625 3.0977)">
	</image>
	<g class="st2">
		<path class="st0" d="M31.6,8.1c-6.6,0-11.9,5.3-11.9,11.9C19.6,26.7,25,32,31.6,32c6.6,0,11.9-5.3,11.9-11.9
			C43.5,13.5,38.2,8.1,31.6,8.1z M31.6,26.2c-3.4,0-6.1-2.7-6.1-6.1c0-3.4,2.7-6.1,6.1-6.1c3.4,0,6.1,2.7,6.1,6.1
			C37.7,23.5,35,26.2,31.6,26.2z"/>
		<circle class="st0" cx="31.6" cy="20.1" r="2.1"/>
		<g>
			<path class="st0" d="M37.6,9.6c-0.3,1.1-1.4,1.7-2.5,1.4l-2.3-0.6c-1.1-0.3-1.7-1.4-1.4-2.5l0.9-3.2c0.3-1.1,1.4-1.7,2.5-1.4
				l2.3,0.6c1.1,0.3,1.7,1.4,1.4,2.5L37.6,9.6z"/>
		</g>
		<g>
			<path class="st0" d="M25.5,9.6c0.8,0.8,0.8,2.1,0,2.8l-1.7,1.7c-0.8,0.8-2.1,0.8-2.8,0l-2.4-2.4c-0.8-0.8-0.8-2.1,0-2.8l1.7-1.7
				c0.8-0.8,2.1-0.8,2.8,0L25.5,9.6z"/>
		</g>
		<g>
			<path class="st0" d="M19.4,20c1.1-0.3,2.2,0.4,2.4,1.4l0.6,2.3c0.3,1.1-0.4,2.2-1.4,2.4l-3.2,0.9c-1.1,0.3-2.2-0.4-2.4-1.4
				l-0.6-2.3c-0.3-1.1,0.4-2.2,1.4-2.4L19.4,20z"/>
		</g>
		<g>
			<path class="st0" d="M25.5,30.5c0.3-1.1,1.4-1.7,2.5-1.4l2.3,0.6c1.1,0.3,1.7,1.4,1.4,2.5l-0.9,3.2c-0.3,1.1-1.4,1.7-2.5,1.4
				L26,36.2c-1.1-0.3-1.7-1.4-1.4-2.5L25.5,30.5z"/>
		</g>
		<g>
			<path class="st0" d="M37.6,30.6c-0.8-0.8-0.8-2.1,0-2.8l1.7-1.7c0.8-0.8,2.1-0.8,2.8,0l2.4,2.4c0.8,0.8,0.8,2.1,0,2.8L42.8,33
				c-0.8,0.8-2.1,0.8-2.8,0L37.6,30.6z"/>
		</g>
		<g>
			<path class="st0" d="M43.7,20.1c-1.1,0.3-2.2-0.4-2.4-1.4l-0.6-2.3c-0.3-1.1,0.4-2.2,1.4-2.4l3.2-0.9c1.1-0.3,2.2,0.4,2.4,1.4
				l0.6,2.3c0.3,1.1-0.4,2.2-1.4,2.4L43.7,20.1z"/>
		</g>
	</g>
	<g class="st2">
		<path class="st0" d="M18,30.8c-3.8-2-8.4-0.5-10.4,3.2c-2,3.8-0.5,8.4,3.2,10.4c3.8,2,8.4,0.5,10.4-3.2
			C23.3,37.4,21.8,32.8,18,30.8z M18,39.5c-1,1.9-3.4,2.7-5.3,1.7c-1.9-1-2.7-3.4-1.7-5.3c1-1.9,3.4-2.7,5.3-1.7
			C18.2,35.1,19,37.5,18,39.5z"/>
		<circle class="st5" cx="14.5" cy="37.6" r="1.4"/>
		<g>
			<path class="st0" d="M20.5,34.1c-0.4,0.4-1,0.4-1.4,0.1l-1.6-1.4c-0.4-0.4-0.4-1-0.1-1.4l2.2-2.4c0.4-0.4,1-0.4,1.4-0.1l1.6,1.4
				c0.4,0.4,0.4,1,0.1,1.4L20.5,34.1z"/>
		</g>
		<g>
			<path class="st0" d="M14.6,31.3c0.2,0.5-0.1,1.1-0.7,1.3l-2,0.6c-0.5,0.2-1.1-0.1-1.3-0.7l-1.2-3.8c-0.2-0.5,0.1-1.1,0.7-1.3
				l2-0.6c0.5-0.2,1.1,0.1,1.3,0.7L14.6,31.3z"/>
		</g>
		<g>
			<path class="st0" d="M8.4,34.2c0.5,0.1,0.9,0.7,0.8,1.2l-0.5,2.1C8.5,38,8,38.3,7.5,38.2l-3.2-0.7c-0.5-0.1-0.9-0.7-0.8-1.2
				L4,34.2c0.1-0.5,0.7-0.9,1.2-0.8L8.4,34.2z"/>
		</g>
		<g>
			<path class="st0" d="M8.5,41.1c0.4-0.4,1-0.4,1.4-0.1l1.6,1.4c0.4,0.4,0.4,1,0.1,1.4l-2.3,2.5c-0.4,0.4-1,0.4-1.4,0.1L6.3,45
				c-0.4-0.4-0.4-1-0.1-1.4L8.5,41.1z"/>
		</g>
		<g>
			<path class="st0" d="M14.4,44.3c-0.2-0.5,0.1-1.1,0.7-1.3l2-0.6c0.5-0.2,1.1,0.1,1.3,0.7l1.1,3.5c0.2,0.5-0.1,1.1-0.7,1.3l-2,0.6
				c-0.5,0.2-1.1-0.1-1.3-0.7L14.4,44.3z"/>
		</g>
		<g>
			<path class="st0" d="M20.6,41.1c-0.5-0.1-0.9-0.7-0.8-1.2l0.5-2.1c0.1-0.5,0.7-0.9,1.2-0.8l3.2,0.7c0.5,0.1,0.9,0.7,0.8,1.2
				L25,41c-0.1,0.5-0.7,0.9-1.2,0.8L20.6,41.1z"/>
		</g>
	</g>
</g>
</svg>
